<?xml version="1.0" encoding="utf-8"?>
<!-- Generator: Adobe Illustrator 18.0.0, SVG Export Plug-In . SVG Version: 6.00 Build 0)  -->
<!DOCTYPE svg PUBLIC "-//W3C//DTD SVG 1.1//EN" "http://www.w3.org/Graphics/SVG/1.1/DTD/svg11.dtd">
<svg version="1.1" id="Favicon_Hires" xmlns="http://www.w3.org/2000/svg" xmlns:xlink="http://www.w3.org/1999/xlink" x="0px"
	 y="0px" viewBox="0 0 152 152" enable-background="new 0 0 152 152" xml:space="preserve">
<path fill="#383938" d="M123.5,152h-95C12.825,152,0,139.175,0,123.5v-95C0,12.825,12.825,0,28.5,0h95
	C139.175,0,152,12.825,152,28.5v95C152,139.175,139.175,152,123.5,152z"/>
<g>
	<path fill="#FFFFFF" d="M34.438,54.15h14.488l5.938,28.5H55.1l14.25-28.5h14.488l-6.175,43.7h-9.738l4.75-33.488h-0.238
		L56.288,97.85h-7.363l-6.413-33.488h-0.238l-4.75,33.488h-9.738L34.438,54.15L34.438,54.15z M92.863,54.15h16.387
		c1.9,0,3.8,0.238,5.7,0.475c1.9,0.238,3.562,0.712,4.988,1.663c1.425,0.712,2.613,1.9,3.325,3.325
		c0.713,1.425,0.95,3.325,0.713,5.7c-0.238,2.375-1.188,4.512-2.85,6.175c-1.662,1.663-3.562,2.85-5.938,3.562v0.238
		c1.425,0.238,2.613,0.712,3.8,1.188c1.188,0.712,1.9,1.425,2.613,2.375s1.188,1.9,1.425,3.325c0.238,1.188,0.238,2.613,0.238,4.038
		c-0.238,2.375-1.188,4.275-2.375,5.7c-1.188,1.663-2.613,2.85-4.275,3.8c-1.662,0.95-3.562,1.663-5.463,2.137
		c-1.9,0.475-4.038,0.712-5.938,0.712H87.4L92.863,54.15z M97.375,89.775h8.55c0.712,0,1.425,0,2.375-0.238
		c0.95-0.238,1.425-0.475,2.137-0.95c0.712-0.475,1.188-0.95,1.663-1.663s0.712-1.425,0.95-2.375c0.238-0.95,0-1.9-0.475-2.613
		c-0.475-0.712-0.95-1.188-1.663-1.425l-2.375-0.712c-0.95-0.238-1.663-0.238-2.613-0.238h-7.363L97.375,89.775L97.375,89.775z
		 M99.988,71.725h6.887c0.712,0,1.425,0,2.137-0.238l2.137-0.712c0.712-0.475,1.188-0.95,1.663-1.425
		c0.475-0.475,0.712-1.425,0.95-2.137c0.238-0.95,0-1.663-0.238-2.137c-0.238-0.712-0.712-0.95-1.425-1.425
		c-0.475-0.238-1.188-0.475-1.9-0.712c-0.712-0.238-1.425-0.238-2.137-0.238h-6.65L99.988,71.725z"/>
</g>
</svg>
