<?xml version="1.0" encoding="utf-8"?>
<!-- Generator: Adobe Illustrator 18.0.0, SVG Export Plug-In . SVG Version: 6.00 Build 0)  -->
<!DOCTYPE svg PUBLIC "-//W3C//DTD SVG 1.1//EN" "http://www.w3.org/Graphics/SVG/1.1/DTD/svg11.dtd">
<svg version="1.1" id="Favicon_Lowres" xmlns="http://www.w3.org/2000/svg" xmlns:xlink="http://www.w3.org/1999/xlink" x="0px"
	 y="0px" viewBox="0 0 64 64" enable-background="new 0 0 64 64" xml:space="preserve">
<path fill="#383938" d="M52,64H12C5.4,64,0,58.6,0,52V12C0,5.4,5.4,0,12,0h40c6.6,0,12,5.4,12,12v40C64,58.6,58.6,64,52,64z"/>
<g>
	<path fill="#FFFFFF" d="M14.5,22.8h6.1l2.5,12h0.1l6-12h6.1l-2.6,18.4h-4.1l2-14.1h-0.1l-6.8,14.1h-3.1l-2.7-14.1h-0.1l-2,14.1
		h-4.1L14.5,22.8L14.5,22.8z M39.1,22.8H46c0.8,0,1.6,0.1,2.4,0.2c0.8,0.1,1.5,0.3,2.1,0.7c0.6,0.3,1.1,0.8,1.4,1.4
		c0.3,0.6,0.4,1.4,0.3,2.4c-0.1,1-0.5,1.9-1.2,2.6s-1.5,1.2-2.5,1.5v0.1c0.6,0.1,1.1,0.3,1.6,0.5c0.5,0.3,0.8,0.6,1.1,1
		s0.5,0.8,0.6,1.4c0.1,0.5,0.1,1.1,0.1,1.7c-0.1,1-0.5,1.8-1,2.4c-0.5,0.7-1.1,1.2-1.8,1.6s-1.5,0.7-2.3,0.9
		c-0.8,0.2-1.7,0.3-2.5,0.3h-7.5L39.1,22.8z M41,37.8h3.6c0.3,0,0.6,0,1-0.1s0.6-0.2,0.9-0.4c0.3-0.2,0.5-0.4,0.7-0.7s0.3-0.6,0.4-1
		s0-0.8-0.2-1.1c-0.2-0.3-0.4-0.5-0.7-0.6l-1-0.3c-0.4-0.1-0.7-0.1-1.1-0.1h-3.1L41,37.8L41,37.8z M42.1,30.2H45
		c0.3,0,0.6,0,0.9-0.1l0.9-0.3c0.3-0.2,0.5-0.4,0.7-0.6s0.3-0.6,0.4-0.9c0.1-0.4,0-0.7-0.1-0.9c-0.1-0.3-0.3-0.4-0.6-0.6
		c-0.2-0.1-0.5-0.2-0.8-0.3c-0.3-0.1-0.6-0.1-0.9-0.1h-2.8L42.1,30.2z"/>
</g>
</svg>
